<svg id="Layer_1" data-name="Layer 1" xmlns="http://www.w3.org/2000/svg" viewBox="0 0 388.14 119.79"><defs><style>.cls-1,.cls-2{fill:#fff;}.cls-2{font-size:26px;font-family:Bitter-BlackItalic, Bitter;font-weight:800;font-style:italic;}</style></defs><title>logo</title><path class="cls-1" d="M175.41,62.81a3.3,3.3,0,0,0-1.59-2,3.55,3.55,0,0,0-2.75-.21,5.45,5.45,0,0,0-3,2.75c-1.77,2.93-3.26,5.33-4.47,7.23s-2.21,3.44-3,4.64a27.21,27.21,0,0,1-2.11,2.84,14,14,0,0,1-1.76,1.72q1.13-2.76,2.5-6.07T162.13,67q1.5-3.44,2.92-6.79L167.67,54l2-4.56a4.44,4.44,0,0,0-2.45-1.51,18.23,18.23,0,0,0-3.57-.6,18.65,18.65,0,0,0-3.74.13,17.45,17.45,0,0,0-3.14.69c-.63,1.09-1.25,2.22-1.85,3.4L152.62,56c-.91,1.77-2,3.94-3.26,6.49s-2.84,5.75-4.73,9.59a28,28,0,0,1-3.1,3.78,5.37,5.37,0,0,1-2.67,1.72q-1.11.18-1.59-1.29A13.09,13.09,0,0,1,137.4,71a24.75,24.75,0,0,1,1.68-6c.89-2.21,1.85-4.34,2.88-6.41s2-4,3-5.67,1.69-3,2.15-3.87a2.57,2.57,0,0,0-1.51-1.25,12.26,12.26,0,0,0-2.7-.73c-.42-.07-.85-.12-1.28-.17a64.79,64.79,0,0,1-3.33,14.84,95.19,95.19,0,0,1-8.92,18.73c-1.36,2.23-2.81,4.41-4.33,6.56a11.53,11.53,0,0,0,4.35,2.09,11.32,11.32,0,0,0,4.09.43,12,12,0,0,0,3.65-.9,16.54,16.54,0,0,0,3.27-1.85,31.52,31.52,0,0,0,3-2.49,18.84,18.84,0,0,1-1.37,3.69,26.56,26.56,0,0,1-1.94,3.27c-.72,1-1.49,2.05-2.32,3.05s-1.71,2-2.62,3.14q-1.9,2.23-3.66,4.52a31.87,31.87,0,0,0-3,4.56,15.18,15.18,0,0,0-1.59,4.55,9,9,0,0,0,.39,4.52,6,6,0,0,0,2.67,3,8.73,8.73,0,0,0,3.82,1.07,9,9,0,0,0,4-.77,7.05,7.05,0,0,0,3.18-2.75q1.63-2.5,3.49-5.77t3.57-6.79c1.14-2.35,2.19-4.73,3.13-7.14a53.08,53.08,0,0,0,2.2-6.79,13.69,13.69,0,0,0,6.15-3.18,42.73,42.73,0,0,0,5.84-6.11,70.66,70.66,0,0,0,5.21-7.53c1.6-2.66,3-5.14,4.3-7.43A2.8,2.8,0,0,0,175.41,62.81Z" transform="translate(-8.19 -5.21)"/><path class="cls-1" d="M139.6,42a61.68,61.68,0,0,1-3.55,18.22A95,95,0,0,1,127.13,79,120.31,120.31,0,0,1,114,96.5a106.89,106.89,0,0,1-16.09,14.67A81.65,81.65,0,0,1,80,121.25,49.3,49.3,0,0,1,61.55,125a41.64,41.64,0,0,1-11.17-1.48c-3.58-1-4.05-1.14-7.43-1-5,.22-12.3,2.17-13.89-.85s2.17-15.54,3-20.83a66.92,66.92,0,0,1,2.91-12,142.84,142.84,0,0,1,5.94-14.22q3.56-7.43,8-15.12t9-14.79q4.59-7.11,8.92-13.25T74.6,21.1a76.73,76.73,0,0,0-15.89,6,65.93,65.93,0,0,0-13.89,9.37,46.75,46.75,0,0,0-9.89,12.08,28.37,28.37,0,0,0-3.74,14.15,21.91,21.91,0,0,0,.26,3.23c.17,1.21.38,2.41.64,3.62a29.47,29.47,0,0,1-6.27,2.52,20.47,20.47,0,0,1-5,.71q-6.21,0-9.43-4.07T8.19,58.19A31.27,31.27,0,0,1,12.58,42,50.37,50.37,0,0,1,24.14,28.66,82.16,82.16,0,0,1,40.36,18.39a131.23,131.23,0,0,1,18.35-7.3,139,139,0,0,1,18-4.4A90.88,90.88,0,0,1,91.79,5.21a79.53,79.53,0,0,1,18.67,2.13,46.87,46.87,0,0,1,15.44,6.59,31.65,31.65,0,0,1,10.34,11.44Q140,32.35,139.6,42Zm-25.71-1.8a21.82,21.82,0,0,0-2.52-11,17.71,17.71,0,0,0-7-6.85q-7.11,9-14.61,19.64T75.83,63.55A169.44,169.44,0,0,0,65.11,85.06,67.81,67.81,0,0,0,60,104.84q1.43,4.77,4.59,5.55t7.24-1.23a39.79,39.79,0,0,0,8.65-6.07A94.11,94.11,0,0,0,89.4,94a124.77,124.77,0,0,0,8.08-10.47,111.57,111.57,0,0,0,6.2-10A97.8,97.8,0,0,0,110.92,57,60.37,60.37,0,0,0,113.89,40.23Z" transform="translate(-8.19 -5.21)"/><path class="cls-1" d="M217.73,63.77a3.22,3.22,0,0,0-1.38-2.24,3.09,3.09,0,0,0-2.71-.17,6.5,6.5,0,0,0-3.18,2.84q-1.38,2.31-3,4.73t-3.35,4.64A25.25,25.25,0,0,1,201.82,76c-.66.6-1.16.86-1.51.77s-.5-.61-.47-1.59a23.08,23.08,0,0,1,.9-4.64q.69-2.24,1.64-4.52c.63-1.51,1.19-3.05,1.67-4.6a23.83,23.83,0,0,0,1-4.73,12,12,0,0,0-.51-4.9A6.64,6.64,0,0,0,201.39,48a11.53,11.53,0,0,0-4.86-1.29,15.74,15.74,0,0,0-5.33.69,16.89,16.89,0,0,0-4.56,2.11,2.51,2.51,0,0,1,.21-.73.72.72,0,0,0,.13-.39c.06-.4-.21-.74-.81-1a7.4,7.4,0,0,0-2.28-.6,23.89,23.89,0,0,0-3.06-.17c-1.11,0-2.18,0-3.18.12a18.68,18.68,0,0,0-2.58.39c-.72.17-1.13.37-1.24.6H174a15,15,0,0,0-1.25,2.45q-1,2.2-2.28,5.47c-.59,1.48-1.19,3.09-1.82,4.79a5,5,0,0,1,2.07-1.17,6.15,6.15,0,0,1,1.6-.22,4.68,4.68,0,0,1,2.28.57,4.84,4.84,0,0,1,2.29,2.83,4.29,4.29,0,0,1-.68,3.89c-1.24,2.26-2.68,4.75-4.28,7.41a73.48,73.48,0,0,1-5.31,7.68,47.15,47.15,0,0,1-3.86,4.29l.19.24a9.16,9.16,0,0,0,3.65,2.45,19.32,19.32,0,0,0,4.65,1.16,32.33,32.33,0,0,0,3.78.3,48.46,48.46,0,0,1,1.16-7.13q.9-3.87,2.15-7.79a63.82,63.82,0,0,1,2.88-7.44,38.54,38.54,0,0,1,3.4-6,14,14,0,0,1,3.57-3.69,3.3,3.3,0,0,1,3.52-.35,1.38,1.38,0,0,1,.65,1.51,12.17,12.17,0,0,1-.73,2.66c-.4,1.06-.92,2.25-1.55,3.57s-1.23,2.7-1.81,4.13A62.14,62.14,0,0,0,186,77.4a12.66,12.66,0,0,0,.31,7,7.16,7.16,0,0,0,3.35,4.17,9.87,9.87,0,0,0,5,1.16,15.39,15.39,0,0,0,5.42-1.21,13.76,13.76,0,0,0,4.6-3q1.8-1.89,3.27-3.78t2.88-4.09q1.41-2.19,2.88-4.77T217,67A4.54,4.54,0,0,0,217.73,63.77Z" transform="translate(-8.19 -5.21)"/><path class="cls-1" d="M259.76,61.92A3.17,3.17,0,0,0,258,60a3.52,3.52,0,0,0-2.88.26A7.67,7.67,0,0,0,252,63.77c-.18.28-.45.76-.82,1.42s-.82,1.4-1.33,2.23-1.06,1.71-1.64,2.63-1.14,1.74-1.72,2.49a27.25,27.25,0,0,1-1.85,2.32,4.62,4.62,0,0,1-1.72,1.38c-.48.17-.86-.07-1.11-.73a10.68,10.68,0,0,1-.13-4,36.41,36.41,0,0,1,1.37-7.05,75.06,75.06,0,0,1,2.84-8A6.68,6.68,0,0,0,244,54.05a5.59,5.59,0,0,0-3.18-1.46A4.44,4.44,0,0,0,239.63,50a8.35,8.35,0,0,0-2.53-1.76,13.29,13.29,0,0,0-3.19-1,17.34,17.34,0,0,0-3-.3,16.69,16.69,0,0,0-4.08.56,17.61,17.61,0,0,0-4.61,2,26.6,26.6,0,0,0-4.9,3.83,36.49,36.49,0,0,0-4.9,6c-.3.47-.6.94-.88,1.4a5.47,5.47,0,0,1,1.68-.89,5.62,5.62,0,0,1,1.75-.29,4,4,0,0,1,2.22.63,4.66,4.66,0,0,1,2,3.21,6.08,6.08,0,0,1-.92,4.33c-1.18,2.13-2.27,4.09-3.25,5.81s-2,3.38-2.92,4.85-2,2.9-3,4.19c-.47.6-1,1.21-1.49,1.82a11.74,11.74,0,0,0,.77,1.08,11.27,11.27,0,0,0,6.28,3.61,9.71,9.71,0,0,0,4.35-.13,17.86,17.86,0,0,0,4.21-1.67,24.73,24.73,0,0,0,3.87-2.67,37.05,37.05,0,0,0,3.31-3.1,5.25,5.25,0,0,0,2.11,4.39,7.81,7.81,0,0,0,4.94,1.63,12.25,12.25,0,0,0,4.3-.73,14.84,14.84,0,0,0,3.7-2,18.59,18.59,0,0,0,3.18-2.92c1-1.12,1.92-2.31,2.84-3.57q2.24-3.18,4.13-6.53t3.87-6.71A4.13,4.13,0,0,0,259.76,61.92Zm-23.91-5.46q-1,1.8-2.54,4.34t-3.18,5.25q-1.68,2.7-3.48,5.24c-1.21,1.69-2.31,3.16-3.31,4.39a21.76,21.76,0,0,1-2.63,2.79c-.74.64-1.23.75-1.46.35a4.54,4.54,0,0,1-.6-2.37,12.34,12.34,0,0,1,.51-3.87A30.28,30.28,0,0,1,221,67.85a22,22,0,0,1,3.27-4.94,39.83,39.83,0,0,1,5.37-6,19.17,19.17,0,0,1,3.83-2.71,2.23,2.23,0,0,1,2.11,0C236.26,54.64,236.36,55.37,235.85,56.46Z" transform="translate(-8.19 -5.21)"/><path class="cls-1" d="M325.11,63.06A3,3,0,0,0,323.39,61a3.59,3.59,0,0,0-2.89.21,6,6,0,0,0-2.75,3.06q-1.46,2.49-3.18,5t-3.35,4.6a19.82,19.82,0,0,1-1.72,2A3.92,3.92,0,0,1,307.86,77c-.46.12-.76-.11-.9-.68a10,10,0,0,1,.39-3.62,45.9,45.9,0,0,1,1.59-4.77q1-2.53,1.93-4.77a33.89,33.89,0,0,0,1.16-4.6,14.52,14.52,0,0,0,.13-4.86,8.55,8.55,0,0,0-1.76-4.13,7.15,7.15,0,0,0-4.34-2.41,15.64,15.64,0,0,0-8.82.56,20.49,20.49,0,0,0-7.18,5.38,7.06,7.06,0,0,0-2.67-4.39,9.59,9.59,0,0,0-4.81-1.85,15.32,15.32,0,0,0-5.81.56,17.45,17.45,0,0,0-5.63,2.75c.17-.28.33-.53.47-.73a3,3,0,0,0,.39-1c.11-.4-.12-.74-.69-1a6.82,6.82,0,0,0-2.28-.6c-.94-.12-2-.19-3.09-.22a28.43,28.43,0,0,0-3.23.09,13.88,13.88,0,0,0-2.62.43c-.72.2-1.13.41-1.25.64h.09a13.37,13.37,0,0,0-1.16,2.41c-.6,1.43-1.31,3.24-2.11,5.42-.42,1.14-.85,2.33-1.3,3.59a1.73,1.73,0,0,1,.3-.16,5.68,5.68,0,0,1,2.46-.61,4.09,4.09,0,0,1,1.63.32,4.59,4.59,0,0,1,2.6,2.81,5.52,5.52,0,0,1-.3,4.26l-.07.15c-1.32,2.22-2.61,4.47-3.86,6.68s-2.7,4.51-4.21,6.66C252,80.59,251,81.83,250,83A18.91,18.91,0,0,1,247.86,85a3.9,3.9,0,0,0,.58.94,7.38,7.38,0,0,0,3.22,2.15,18,18,0,0,0,4.56,1c1.69.14,3.4.21,5.12.21a12.49,12.49,0,0,1,.43-4.47,71,71,0,0,1,2-7.14q1.29-4,3.06-8a62.37,62.37,0,0,1,3.57-7.14A17,17,0,0,1,273.89,58c1.15-1,2.15-1,3,0,.29.34.32,1.13.09,2.36a38.93,38.93,0,0,1-1.16,4.43c-.55,1.72-1.16,3.57-1.85,5.55S272.65,74.18,272,76s-1.1,3.34-1.5,4.69a8.39,8.39,0,0,0-.52,2.71,5.5,5.5,0,0,0,1.51,3.44,8,8,0,0,0,3.05,1.8,16.6,16.6,0,0,0,4,.78c1.46.11,2.94.26,4.43.43a10.22,10.22,0,0,1,.43-3.27c.4-1.89,1-4.16,1.76-6.79s1.68-5.42,2.71-8.35a59.62,59.62,0,0,1,3.35-7.82,21.15,21.15,0,0,1,3.7-5.29c1.26-1.23,2.5-1.51,3.7-.82.52.35.73,1.08.65,2.19a21.08,21.08,0,0,1-.78,4q-.64,2.28-1.63,5T295,73.85c-.63,1.7-1.15,3.24-1.55,4.65a9.88,9.88,0,0,0-.51,3.22,6.55,6.55,0,0,0,2.32,5.46,9.91,9.91,0,0,0,5.55,2.11,16.13,16.13,0,0,0,6.53-.86A12.23,12.23,0,0,0,312.68,85a39.51,39.51,0,0,0,2.92-3.48q1.38-1.85,2.75-4c.92-1.47,1.87-3.07,2.84-4.82s2.07-3.71,3.27-5.89A5,5,0,0,0,325.11,63.06Z" transform="translate(-8.19 -5.21)"/><path class="cls-1" d="M334.58,44.09a10.07,10.07,0,0,0,3.62,1.68,2.72,2.72,0,0,0,2.92-.65l4.21-7a1.56,1.56,0,0,0,.26-.43,1.7,1.7,0,0,0,.17-.81,2,2,0,0,0-.34-1,3.39,3.39,0,0,0-1.2-1.08h.17a22.1,22.1,0,0,0-3.31-1.94,8.56,8.56,0,0,0-3.57-.73c-1.95,0-3.21.41-3.79,1.21a7.64,7.64,0,0,0-1.42,2.54,10.77,10.77,0,0,0-.55,2.79,5.93,5.93,0,0,0,.38,3A5.62,5.62,0,0,0,334.58,44.09Z" transform="translate(-8.19 -5.21)"/><path class="cls-1" d="M346.92,62.41a3.3,3.3,0,0,0-1.67-2.07,3.49,3.49,0,0,0-2.84,0,6.3,6.3,0,0,0-3,3.1q-1.63,2.93-3.87,6.19a42.1,42.1,0,0,1-4.39,5.5,12.64,12.64,0,0,1-2,1.81,1.84,1.84,0,0,1-1.38.47c-.34-.08-.55-.46-.6-1.11a9.4,9.4,0,0,1,.43-3,37.83,37.83,0,0,1,2.06-6q1.47-3.44,3.18-6.8t3.44-6.23a36.2,36.2,0,0,1,3-4.43,4.87,4.87,0,0,0-1.63-1,19.91,19.91,0,0,0-3.18-1.12,32.09,32.09,0,0,0-4.17-.82,19.13,19.13,0,0,0-4.6,0c-1,2-2.28,4.44-3.75,7.31-1,2-2,4.07-2.88,6.18a6.2,6.2,0,0,1,1.12-.68,5.93,5.93,0,0,1,2.4-.56,4.29,4.29,0,0,1,1.67.33,4.48,4.48,0,0,1,2.58,3,6.38,6.38,0,0,1-.75,4.83l-3.28,5.93c-1,1.76-1.95,3.4-2.88,4.88s-1.89,2.89-2.82,4.14c-.68.92-1.41,1.78-2.15,2.62A8.15,8.15,0,0,0,316.74,87a9.58,9.58,0,0,0,6.58,2.24,13.64,13.64,0,0,0,6.92-1.76A22,22,0,0,0,336,82.57a51,51,0,0,0,5.2-7.52q2.54-4.39,5.38-9.63A3.67,3.67,0,0,0,346.92,62.41Z" transform="translate(-8.19 -5.21)"/><path class="cls-1" d="M377.52,61.87A2.89,2.89,0,0,0,375.8,60a3.59,3.59,0,0,0-2.76.31,6.83,6.83,0,0,0-2.83,3.13q-1.72,2.76-3.44,5.34t-3.4,4.77c-1.12,1.46-2.19,2.77-3.23,3.91a13.94,13.94,0,0,1-2.92,2.58,10.16,10.16,0,0,1-3.53,1.42A5.79,5.79,0,0,1,350,80.32h.08a7.94,7.94,0,0,1-3-4.64,16.34,16.34,0,0,1-.17-6c.13-.83.31-1.66.52-2.49-1.61,3-3.17,5.74-4.65,8.29a53.59,53.59,0,0,1-5.35,7.75c-.11.12-.22.22-.32.34a16.4,16.4,0,0,0,3.65,3.09,18.9,18.9,0,0,0,4.65,2.07,18.17,18.17,0,0,0,5.07.73,21,21,0,0,0,7.05-1.16A15.64,15.64,0,0,0,363,85.14a60.6,60.6,0,0,0,7.83-9.51,119,119,0,0,0,6.36-10.53A4.15,4.15,0,0,0,377.52,61.87Z" transform="translate(-8.19 -5.21)"/><path class="cls-1" d="M339.8,57.79a29.78,29.78,0,0,0-4.08,6.75A24.79,24.79,0,0,0,334.28,69l.36-.51c1.46-2.13,2.74-4.18,3.8-6.08a7.56,7.56,0,0,1,3.8-3.77,6,6,0,0,1,2.05-.4,4.46,4.46,0,0,1,2,.46,4.79,4.79,0,0,1,2.43,3,4.57,4.57,0,0,1,.23,1.31,28.62,28.62,0,0,1,2.83-5.05,13.63,13.63,0,0,1,3.48-3.48,3.12,3.12,0,0,1,3.27-.39h-.09a1,1,0,0,1,.69.74,2.81,2.81,0,0,1,0,1.07,5.11,5.11,0,0,1-.39,1.12,2,2,0,0,0-.26.86c-1.09.29-2.2.62-3.35,1a6.71,6.71,0,0,0-3.18,2.45,5,5,0,0,0-1.08,3.44A4.69,4.69,0,0,0,352,67.29a6.3,6.3,0,0,0,2.45,1.64,7.94,7.94,0,0,0,2.84.55,8.63,8.63,0,0,0,3.87-.81,9.71,9.71,0,0,0,2.4-1.59c.35-.58.83-1.38,1.47-2.41a37.57,37.57,0,0,0,1.84-3.44,26.1,26.1,0,0,0,1.51-3.91,11.47,11.47,0,0,0,.52-3.75,5.59,5.59,0,0,0-1.17-3,8.23,8.23,0,0,0-2.45-2.07,12,12,0,0,0-3.14-1.2,14.15,14.15,0,0,0-3.22-.39A18.35,18.35,0,0,0,352,48.37a27.49,27.49,0,0,0-6.58,3.83A33.12,33.12,0,0,0,339.8,57.79Z" transform="translate(-8.19 -5.21)"/><text class="cls-2" transform="translate(370.92 44.61)">3</text></svg>